<?xml version="1.0" standalone="no"?>
<!DOCTYPE svg PUBLIC "-//W3C//DTD SVG 20010904//EN"
 "http://www.w3.org/TR/2001/REC-SVG-20010904/DTD/svg10.dtd">
<svg version="1.0" xmlns="http://www.w3.org/2000/svg"
 width="790.000000pt" height="779.000000pt" viewBox="0 0 790.000000 779.000000"
 preserveAspectRatio="xMidYMid meet">

<g transform="translate(0.000000,779.000000) scale(0.100000,-0.100000)"
fill="#000000" stroke="none">
<path d="M3896 6831 c-66 -7 -90 -27 -70 -58 10 -16 29 -18 195 -14 104 2 189
8 197 13 16 14 15 33 -4 52 -12 13 -38 16 -137 14 -67 -1 -149 -4 -181 -7z"/>
<path d="M4490 6791 c-12 -24 -4 -49 18 -55 10 -2 54 -10 100 -16 65 -10 85
-10 97 0 17 14 19 29 6 48 -8 14 -132 42 -183 42 -17 0 -31 -8 -38 -19z"/>
<path d="M3420 6763 c-73 -17 -90 -27 -90 -53 0 -40 24 -44 127 -19 97 24 98
24 98 54 0 27 -3 30 -35 32 -19 1 -64 -5 -100 -14z"/>
<path d="M4929 6721 l-29 -29 0 -227 c0 -125 -3 -225 -7 -223 -5 2 -33 16 -63
32 -79 42 -166 42 -234 1 -99 -61 -144 -173 -111 -277 24 -78 65 -115 236
-214 l151 -88 -51 -17 c-64 -20 -85 -39 -116 -103 -52 -107 -61 -193 -29 -257
14 -29 79 -89 95 -89 6 0 -9 -22 -33 -49 -34 -38 -50 -67 -67 -126 -41 -136
-12 -219 95 -271 l57 -28 -29 -9 c-129 -41 -181 -281 -80 -369 31 -28 95 -56
144 -64 l42 -7 0 -178 0 -179 29 -32 29 -33 289 -5 288 -5 95 -64 c126 -85
348 -193 476 -233 l105 -33 186 -177 c103 -98 194 -178 203 -178 20 0 40 20
40 40 0 9 -70 81 -155 160 -139 129 -153 146 -135 154 25 11 27 52 3 64 -10 5
-38 10 -63 11 -117 5 -291 65 -450 155 -47 27 -101 57 -120 68 -19 11 -39 24
-45 29 -5 5 156 9 402 9 274 0 421 4 442 11 62 22 61 15 61 584 0 512 0 515
20 515 36 0 77 28 88 59 8 23 -1 126 -44 462 -29 237 -56 447 -60 465 -8 44
28 119 67 139 32 17 96 20 132 6 14 -5 34 -23 46 -40 17 -24 391 -1170 391
-1198 0 -3 10 2 23 13 l22 19 -22 -25 -22 -25 19 -90 c45 -221 53 -304 41
-409 -10 -81 -20 -113 -54 -182 -34 -70 -39 -85 -28 -98 24 -29 50 -18 83 34
l32 51 23 -28 c13 -15 37 -47 55 -70 35 -47 62 -61 83 -43 26 22 16 45 -59
138 -73 90 -74 91 -65 134 16 82 9 231 -16 388 -30 180 -43 230 -135 520 -38
118 -117 366 -175 550 -114 363 -125 385 -205 427 -54 29 -129 30 -189 3 -24
-11 -45 -20 -47 -20 -2 0 -4 117 -4 261 l0 261 -29 29 -29 29 -782 0 -782 0
-29 -29z m1129 -49 l442 -2 0 -50 0 -49 -512 -3 c-282 -2 -624 -2 -760 0
l-248 3 0 49 0 50 183 2 c100 2 243 3 317 2 74 0 334 -1 578 -2z m447 -1292
l0 -1105 -762 -3 -763 -2 0 34 c0 27 7 38 35 57 19 13 45 43 56 67 48 98 33
189 -43 264 -26 26 -48 49 -48 52 0 3 17 14 38 25 104 53 157 223 104 328 -22
41 -84 103 -105 103 -6 0 12 21 40 46 44 38 56 55 73 111 26 84 25 127 -3 185
-23 49 -83 104 -124 114 l-23 6 0 286 0 285 -22 -19 -23 -19 23 26 c20 23 22
35 22 147 l0 122 763 -2 762 -3 0 -1105z m-1679 807 l62 -35 23 22 23 21 -18
-22 c-16 -19 -18 -42 -16 -207 0 -117 -3 -186 -9 -186 -15 0 -242 134 -280
166 -65 54 -78 129 -35 202 32 54 90 85 149 79 22 -3 68 -20 101 -40z m-186
-291 c0 -2 -8 -10 -17 -17 -16 -13 -17 -12 -4 4 13 16 21 21 21 13z m306 -303
c90 -30 123 -69 124 -143 0 -89 -72 -180 -143 -180 -47 0 -136 32 -162 58 -35
35 -39 77 -16 150 41 126 86 153 197 115z m1660 -397 c9 -64 14 -120 10 -123
-3 -3 -12 -3 -21 0 -12 5 -15 28 -15 128 0 67 2 120 5 117 3 -2 12 -57 21
-122z m-1652 -57 c98 -36 132 -104 101 -198 -34 -104 -101 -137 -207 -105
-115 35 -139 87 -97 212 37 109 91 133 203 91z m-193 -446 c13 -16 12 -17 -3
-4 -17 13 -22 21 -14 21 2 0 10 -8 17 -17z m180 -33 c22 -12 49 -35 59 -53 22
-35 26 -97 9 -128 -8 -16 -7 -25 8 -42 18 -22 18 -22 -3 -4 -19 16 -22 16 -34
2 -36 -44 -97 -55 -158 -30 -83 35 -104 81 -76 170 32 100 104 131 195 85z
m1557 -582 l-3 -113 -755 0 -755 0 -3 113 -3 112 761 0 761 0 -3 -112z"/>
<path d="M5226 6294 c-14 -13 -16 -53 -16 -285 0 -167 4 -278 10 -290 10 -18
27 -19 538 -19 397 0 531 3 540 12 9 9 12 87 12 289 0 239 -2 280 -16 293 -14
14 -76 16 -534 16 -458 0 -520 -2 -534 -16z m1004 -289 l0 -225 -470 0 -470 0
0 225 0 225 470 0 470 0 0 -225z"/>
<path d="M5278 5469 c-21 -12 -23 -40 -6 -57 9 -9 98 -12 338 -12 240 0 329 3
338 12 18 18 14 46 -7 58 -26 14 -640 13 -663 -1z"/>
<path d="M6148 5463 c-11 -13 -13 -25 -7 -40 8 -21 15 -23 77 -23 86 0 116 25
76 64 -23 23 -126 22 -146 -1z"/>
<path d="M5278 5209 c-21 -12 -23 -40 -6 -57 9 -9 98 -12 338 -12 240 0 329 3
338 12 18 18 14 46 -7 58 -26 14 -640 13 -663 -1z"/>
<path d="M6150 5200 c-16 -16 -18 -25 -10 -40 9 -17 21 -20 78 -20 66 0 92 10
92 36 0 46 -121 63 -160 24z"/>
<path d="M5278 4949 c-21 -12 -23 -40 -6 -57 17 -17 659 -17 676 0 18 18 14
46 -7 58 -26 14 -640 13 -663 -1z"/>
<path d="M6146 4939 c-11 -17 -12 -25 -3 -40 10 -15 24 -19 77 -19 64 0 90 10
90 36 0 29 -32 44 -90 44 -49 0 -61 -4 -74 -21z"/>
<path d="M5278 4689 c-21 -12 -23 -40 -6 -57 17 -17 659 -17 676 0 18 18 14
46 -7 58 -26 14 -640 13 -663 -1z"/>
<path d="M6152 4683 c-16 -14 -18 -23 -12 -40 8 -21 16 -23 78 -23 86 0 116
25 76 64 -22 23 -115 22 -142 -1z"/>
<path d="M5617 4094 c-4 -4 -7 -18 -7 -31 0 -32 33 -43 124 -43 82 0 110 13
104 51 -3 24 -5 24 -109 27 -58 1 -108 -1 -112 -4z"/>
<path d="M1880 6530 c-139 -33 -258 -138 -316 -278 -17 -44 -19 -81 -22 -526
-2 -315 1 -496 8 -530 17 -83 62 -166 117 -217 58 -54 82 -68 143 -84 l45 -11
5 -215 c5 -221 10 -248 50 -269 26 -14 86 -13 102 3 7 6 42 37 78 67 36 30
101 86 145 125 45 38 110 95 145 125 97 83 165 144 168 153 2 4 229 7 505 7
545 1 581 4 675 55 70 38 148 117 183 187 32 64 35 72 17 62 -7 -4 -4 3 7 15
17 20 20 40 23 153 l4 130 -29 32 -28 31 28 -24 27 -24 0 334 c0 277 -3 345
-16 390 -44 151 -160 265 -309 303 -48 13 -123 16 -388 16 -312 0 -329 -1
-316 -17 13 -17 13 -17 -7 0 -19 16 -58 17 -515 16 -272 -1 -510 -5 -529 -9z
m1405 -70 c320 0 361 -6 441 -61 57 -39 92 -82 128 -159 l31 -65 3 -413 c2
-250 -1 -439 -7 -479 -20 -127 -95 -231 -208 -289 l-58 -29 -540 -5 -540 -5
-66 -55 c-37 -30 -162 -138 -279 -240 -116 -102 -221 -186 -231 -188 -18 -3
-19 6 -19 230 0 169 -3 237 -12 246 -7 7 -28 12 -47 12 -46 0 -128 38 -168 79
-47 47 -82 126 -91 206 -4 39 -5 268 -2 510 l5 440 27 57 c34 73 98 137 174
174 l59 29 548 3 c429 2 546 5 541 15 -5 9 -4 9 7 0 10 -10 85 -13 304 -13z
m585 -1334 c0 -2 -8 -10 -17 -17 -16 -13 -17 -12 -4 4 13 16 21 21 21 13z
m-50 -49 c0 -2 -15 -16 -32 -33 l-33 -29 29 33 c28 30 36 37 36 29z m-100
-100 c0 -2 -15 -16 -32 -33 l-33 -29 29 33 c28 30 36 37 36 29z"/>
<path d="M2810 6178 c-5 -13 -14 -48 -19 -78 -6 -30 -44 -218 -86 -418 -41
-199 -75 -373 -75 -386 0 -26 23 -40 51 -31 21 7 23 12 43 120 9 44 34 168 56
275 87 419 103 507 97 523 -10 26 -55 22 -67 -5z"/>
<path d="M2169 5929 c-107 -89 -199 -168 -205 -175 -7 -8 -10 -23 -7 -32 3 -9
68 -69 145 -132 77 -63 166 -136 197 -162 56 -48 74 -55 100 -39 32 20 -1 58
-168 196 -94 77 -170 143 -171 147 0 4 30 32 68 61 161 130 277 234 281 252 3
17 -22 45 -40 45 -3 0 -94 -72 -200 -161z"/>
<path d="M3093 6079 c-48 -18 -27 -44 152 -194 96 -80 175 -150 175 -155 0 -4
-33 -34 -73 -66 -172 -138 -266 -220 -272 -237 -8 -22 11 -47 35 -47 9 0 93
64 186 141 93 78 179 148 192 157 32 21 45 48 33 70 -5 9 -39 42 -76 72 -37
30 -120 99 -184 153 -136 115 -139 117 -168 106z"/>
<path d="M1332 5097 c-20 -24 -72 -149 -72 -172 0 -25 26 -40 52 -30 8 3 31
46 53 95 31 74 36 92 25 105 -15 18 -44 20 -58 2z"/>
<path d="M1140 4605 c-12 -30 -43 -162 -65 -273 -18 -88 -12 -112 25 -112 27
0 35 17 59 135 12 61 31 141 42 178 22 76 16 97 -27 97 -17 0 -27 -8 -34 -25z"/>
<path d="M1713 4125 c-17 -7 -36 -22 -42 -34 -7 -12 -11 -102 -11 -240 l0
-221 -152 0 c-100 0 -172 -5 -206 -14 -95 -26 -176 -107 -201 -202 -7 -28 -11
-380 -11 -1128 0 -598 -3 -1092 -7 -1099 -4 -7 -94 -128 -200 -269 -212 -282
-219 -297 -168 -352 l24 -26 2446 0 2446 0 24 25 c17 17 25 35 25 60 0 32 -26
71 -200 303 l-200 267 0 1091 c0 1204 3 1150 -63 1233 -69 87 -145 111 -351
111 l-146 0 0 215 c0 139 -4 223 -11 239 -27 59 57 56 -1521 55 -1197 0 -1448
-2 -1475 -14z m2925 -187 l3 -118 -1451 0 -1450 0 0 120 0 120 1448 -2 1447
-3 3 -117z m2 -508 l0 -310 -924 0 -923 0 -6 78 c-8 110 -59 208 -142 274 -85
69 -148 91 -265 92 -83 1 -104 -3 -163 -28 -143 -60 -236 -186 -247 -335 l-5
-76 -112 -3 -112 -3 -3 53 c-2 29 -2 169 0 311 l3 257 1449 0 1450 0 0 -310z
m-2980 50 c0 -38 -3 -70 -7 -70 -5 0 -66 -1 -138 -1 -138 -1 -185 -12 -204
-47 -8 -14 -11 -321 -11 -996 l0 -975 24 -28 24 -28 1828 -3 c1654 -2 1830 -1
1851 14 53 34 53 32 52 727 0 354 -2 647 -6 651 -3 3 -13 0 -22 -6 -9 -7 -6
-1 7 13 22 25 22 29 22 302 0 299 -5 332 -52 359 -19 10 -129 17 -300 18 -5 0
-8 32 -8 70 l0 70 148 0 c81 0 164 -5 186 -11 51 -14 123 -82 136 -128 6 -23
10 -417 10 -1108 l0 -1073 -272 0 -271 0 24 -27 24 -28 -31 28 -30 27 -539 0
-539 0 -25 -22 -26 -23 19 23 19 22 -1191 0 -1192 0 0 1078 c0 1027 1 1079 19
1117 10 22 32 53 49 68 50 47 91 56 265 57 l157 0 0 -70z m861 -22 c68 -31
128 -89 159 -154 34 -70 35 -180 1 -252 -14 -29 -28 -52 -32 -52 -16 0 -152
30 -161 36 -5 4 -1 15 10 28 32 36 60 89 67 127 8 43 -10 142 -32 180 -27 45
-90 79 -148 79 -118 0 -171 -42 -199 -157 -21 -83 -12 -131 35 -201 36 -53 36
-60 2 -68 -16 -3 -44 -10 -63 -15 -56 -14 -60 -12 -87 47 -31 68 -34 146 -8
224 27 81 110 161 196 189 86 28 184 24 260 -11z m-97 -95 c39 -18 52 -45 59
-116 4 -39 0 -58 -19 -92 -14 -24 -31 -49 -39 -55 -9 -8 -15 -30 -15 -60 0
-61 19 -78 104 -93 36 -6 66 -14 66 -17 0 -12 -76 -48 -129 -60 -32 -7 -76
-10 -110 -6 -83 10 -208 76 -143 76 34 0 94 22 113 41 25 25 25 88 0 120 -23
30 -55 98 -53 113 1 6 3 32 5 58 4 53 19 75 62 94 40 18 58 17 99 -3z m-764
-993 l0 -960 -139 0 c-117 0 -140 2 -145 16 -12 31 -7 1876 5 1891 9 10 46 13
145 13 l134 0 0 -960z m3328 948 c9 -9 12 -232 12 -944 0 -513 -3 -939 -6
-948 -5 -14 -27 -16 -140 -16 l-134 0 0 960 0 960 128 0 c86 0 132 -4 140 -12z
m-2978 -315 c38 -73 130 -158 198 -183 211 -80 430 -7 534 178 l30 52 934 0
934 0 0 -366 c0 -348 1 -366 18 -353 16 13 16 13 0 -7 -17 -19 -18 -56 -18
-467 l0 -447 -1450 0 -1450 0 -2 773 c-2 424 -2 793 0 820 l3 47 122 0 122 0
25 -47z m1700 -1627 c0 -2 -8 -10 -17 -17 -16 -13 -17 -12 -4 4 13 16 21 21
21 13z m815 -16 c10 -11 16 -20 13 -20 -3 0 -13 9 -23 20 -10 11 -16 20 -13
20 3 0 13 -9 23 -20z m762 -301 c37 -51 75 -101 83 -112 8 -12 63 -86 123
-166 59 -79 107 -150 107 -158 0 -11 -162 -13 -923 -13 l-922 0 -29 84 c-16
47 -33 89 -39 95 -8 8 -163 11 -498 11 -437 0 -488 -2 -500 -16 -8 -9 -26 -51
-40 -93 l-26 -76 -928 -3 c-897 -2 -927 -2 -923 16 3 10 90 132 194 270 l188
252 2032 0 2032 0 69 -91z m-4232 31 c10 -11 16 -20 13 -20 -3 0 -13 9 -23 20
-10 11 -16 20 -13 20 3 0 13 -9 23 -20z m2300 -370 c148 0 272 -4 276 -8 3 -4
11 -20 17 -37 5 -16 13 -38 17 -47 6 -16 -26 -17 -469 -17 -261 0 -478 3 -480
8 -3 5 1 29 10 55 l16 46 153 0 c97 0 156 4 160 10 5 7 11 8 19 1 7 -6 120
-10 281 -11z"/>
<path d="M1868 3986 c-35 -17 -33 -75 4 -95 22 -13 30 -13 51 -2 31 17 41 49
22 77 -18 27 -47 35 -77 20z"/>
<path d="M2082 3978 c-20 -20 -14 -65 10 -82 32 -22 51 -20 79 10 22 23 23 27
8 52 -11 20 -24 28 -49 30 -19 2 -41 -3 -48 -10z"/>
<path d="M2298 3965 c-23 -52 31 -102 81 -76 26 14 36 52 21 80 -8 16 -20 21
-51 21 -32 0 -41 -4 -51 -25z"/>
<path d="M3132 2923 c-29 -6 -96 -69 -87 -83 3 -5 1 -10 -4 -10 -6 0 -11 -21
-11 -49 0 -126 143 -195 244 -117 47 35 58 59 58 118 0 101 -87 163 -200 141z
m87 -83 c10 -5 24 -23 31 -40 10 -25 10 -34 -4 -55 -9 -13 -28 -28 -42 -31
l-25 -7 28 -30 c27 -30 26 -30 -13 3 -63 54 -71 62 -106 105 -26 32 -27 35 -6
17 l26 -23 6 24 c9 38 67 58 105 37z"/>
<path d="M3427 2883 c-17 -16 -6 -54 18 -63 15 -6 198 -10 440 -9 381 0 416 1
436 18 18 15 20 21 10 39 l-12 22 -443 0 c-243 0 -446 -3 -449 -7z"/>
<path d="M3424 2716 c-3 -8 -4 -23 -2 -33 3 -16 18 -18 163 -21 140 -2 161 0
172 14 9 12 9 22 2 35 -9 17 -24 19 -170 19 -130 0 -161 -3 -165 -14z"/>
<path d="M2067 2643 c-12 -11 -8 -50 7 -62 9 -8 104 -11 326 -9 285 3 314 5
324 21 8 12 8 22 0 35 -10 15 -39 17 -331 20 -176 1 -322 -1 -326 -5z"/>
<path d="M3095 2496 c-13 -10 -15 -62 -13 -456 l3 -445 599 -2 c567 -3 598 -2
585 15 -12 15 -12 15 7 -1 18 -15 37 -17 115 -15 l94 3 0 449 0 450 -30 8
c-49 13 -1341 8 -1360 -6z m310 -16 c10 -11 16 -20 13 -20 -3 0 -13 9 -23 20
-10 11 -16 20 -13 20 3 0 13 -9 23 -20z m1008 -429 c-1 -261 -5 -376 -13 -381
-6 -4 -286 -5 -623 -3 l-612 3 -3 380 -2 380 627 -2 627 -3 -1 -374z"/>
<path d="M2070 2406 c-6 -8 -10 -25 -8 -38 l3 -23 310 -3 c171 -1 320 0 333 3
24 6 31 42 10 63 -9 9 -95 12 -324 12 -259 0 -314 -2 -324 -14z"/>
<path d="M2067 2173 c-17 -17 -6 -54 19 -64 31 -11 567 -12 610 0 24 6 29 13
29 37 l0 29 -326 3 c-179 1 -328 -1 -332 -5z"/>
<path d="M2067 1943 c-4 -3 -7 -19 -7 -34 0 -21 6 -30 23 -34 12 -3 159 -4
326 -3 277 3 305 5 315 21 8 12 8 22 0 35 -10 15 -39 17 -331 20 -176 1 -322
-1 -326 -5z"/>
<path d="M2082 1710 c-18 -8 -23 -16 -20 -37 l3 -28 330 0 330 0 3 27 c3 22
-2 30 -20 37 -32 12 -597 13 -626 1z"/>
<path d="M1246 1067 c-11 -8 -17 -22 -14 -38 l3 -24 1944 -3 c1468 -1 1947 1
1958 10 23 19 11 51 -21 59 -16 5 -890 8 -1941 9 -1565 0 -1914 -2 -1929 -13z
m2144 -11 c0 -2 -8 -10 -17 -17 -16 -13 -17 -12 -4 4 13 16 21 21 21 13z
m1455 -16 c10 -11 16 -20 13 -20 -3 0 -13 9 -23 20 -10 11 -16 20 -13 20 3 0
13 -9 23 -20z"/>
<path d="M1178 929 c-21 -12 -23 -40 -6 -57 9 -9 451 -12 1927 -12 l1914 0
-19 23 -19 22 26 -22 c22 -20 36 -23 112 -23 77 0 87 2 97 21 9 16 8 25 -6 40
-17 19 -58 19 -2013 19 -1328 -1 -2002 -4 -2013 -11z m72 -34 c13 -14 21 -25
18 -25 -2 0 -15 11 -28 25 -13 14 -21 25 -18 25 2 0 15 -11 28 -25z m1980 1
c0 -2 -8 -10 -17 -17 -16 -13 -17 -12 -4 4 13 16 21 21 21 13z"/>
<path d="M1030 3921 c-11 -21 -14 -169 -4 -195 9 -22 51 -20 64 3 14 28 13
184 -2 199 -18 18 -46 14 -58 -7z"/>
<path d="M7124 3442 c-6 -4 -17 -51 -24 -106 -14 -104 -11 -115 32 -116 24 0
34 23 47 118 10 64 10 87 0 98 -12 15 -37 18 -55 6z"/>
<path d="M7026 2942 c-3 -6 -28 -75 -55 -154 -27 -78 -55 -157 -62 -175 -10
-26 -10 -34 0 -47 19 -23 48 -20 65 7 23 36 118 325 114 349 -2 16 -11 24 -30
26 -14 2 -29 -1 -32 -6z"/>
<path d="M6752 2283 c-10 -16 -31 -50 -47 -78 -15 -27 -55 -90 -88 -140 -63
-95 -66 -117 -15 -123 25 -3 33 7 130 158 42 65 98 164 98 173 0 11 -31 37
-45 37 -8 0 -22 -12 -33 -27z"/>
<path d="M6232 1604 c-102 -103 -133 -140 -130 -157 2 -16 11 -23 30 -25 23
-3 46 16 158 127 71 72 130 139 130 149 0 22 -19 42 -39 41 -9 0 -76 -61 -149
-135z"/>
<path d="M5774 1228 c-84 -57 -103 -87 -65 -108 16 -8 27 -7 48 4 66 36 138
92 141 110 4 17 -21 46 -38 46 -3 0 -42 -24 -86 -52z"/>
</g>
</svg>
